<?xml version="1.0" encoding="UTF-8"?>
<!DOCTYPE svg PUBLIC "-//W3C//DTD SVG 1.1//EN" "http://www.w3.org/Graphics/SVG/1.1/DTD/svg11.dtd">
<svg xmlns="http://www.w3.org/2000/svg" version="1.1" width="1453px" height="1108px" style="shape-rendering:geometricPrecision; text-rendering:geometricPrecision; image-rendering:optimizeQuality; fill-rule:evenodd; clip-rule:evenodd" xmlns:xlink="http://www.w3.org/1999/xlink">
<g><path style="opacity:1" fill="#ffffff" d="M 593.5,1107.5 C 583.5,1107.5 573.5,1107.5 563.5,1107.5C 562.833,1106.17 562.167,1106.17 561.5,1107.5C 561.167,1107.5 560.833,1107.5 560.5,1107.5C 549.117,1104.18 537.451,1101.35 525.5,1099C 515.678,1095.09 505.678,1091.75 495.5,1089C 487.778,1085.23 480.112,1081.57 472.5,1078C 457.505,1072.03 444.339,1063.19 433,1051.5C 422.902,1033.98 420.236,1015.31 425,995.5C 430.478,974.048 438.478,953.714 449,934.5C 464.363,905.809 481.363,878.142 500,851.5C 535.179,803.305 573.012,757.138 613.5,713C 611.566,698.324 609.566,683.658 607.5,669C 607.847,663.229 607.847,657.229 607.5,651C 606.156,647.138 605.823,643.305 606.5,639.5C 605.814,631.67 605.147,623.836 604.5,616C 604.679,592.48 604.679,569.48 604.5,547C 605.359,535.374 606.359,523.707 607.5,512C 607.415,510.893 607.081,509.893 606.5,509C 608.38,488.185 610.714,467.519 613.5,447C 613.355,446.228 613.022,445.561 612.5,445C 615.446,430.274 617.612,415.44 619,400.5C 590.147,437.34 554.314,465.174 511.5,484C 478.698,495.516 445.698,497.183 412.5,489C 400.958,484.646 390.792,478.146 382,469.5C 353.617,435.719 338.284,396.719 336,352.5C 335.212,336.936 334.378,321.436 333.5,306C 334.654,305.086 334.487,304.253 333,303.5C 331.957,307.055 330.791,310.555 329.5,314C 330.894,314.956 331.561,316.289 331.5,318C 331.333,327.418 331.333,337.085 331.5,347C 331.025,348.763 330.358,350.43 329.5,352C 330.358,353.57 331.025,355.237 331.5,357C 331.006,385.947 330.34,415.114 329.5,444.5C 329.949,481.557 330.282,518.391 330.5,555C 328.802,621.74 320.302,687.906 305,753.5C 295.878,790.549 281.878,825.549 263,858.5C 253.964,873.866 242.464,887.032 228.5,898C 208.23,910.893 186.896,912.893 164.5,904C 118.267,881.39 94.1004,844.224 92,792.5C 89.5362,746.007 94.5362,700.341 107,655.5C 123.024,598.396 144.69,543.729 172,491.5C 207.633,423.722 249.799,360.389 298.5,301.5C 298.398,272.856 298.398,243.689 298.5,214C 297.679,203.91 297.179,193.744 297,183.5C 274.099,215.224 246.599,242.391 214.5,265C 186.031,283.534 155.031,290.201 121.5,285C 104.291,279.444 90.1248,269.61 79,255.5C 75.6667,250.167 72.3333,244.833 69,239.5C 62.3785,254.234 57.3785,269.567 54,285.5C 46.2076,324.268 39.7076,362.935 34.5,401.5C 34.7093,402.086 35.0426,402.586 35.5,403C 33.3375,415.546 32.0042,428.212 31.5,441C 31.9658,454.657 31.9658,468.157 31.5,481.5C 33.0464,487.442 34.3798,493.442 35.5,499.5C 34.0794,506.629 29.9128,508.962 23,506.5C 16.3627,494.591 11.696,481.924 9,468.5C 4.27949,390.199 13.6128,313.533 37,238.5C 40.5545,226.472 47.0545,216.472 56.5,208.5C 66.958,203.819 75.1247,206.485 81,216.5C 95.5039,247.841 120.004,261.007 154.5,256C 174.333,252.247 192.333,244.414 208.5,232.5C 242.158,205.005 270.324,172.672 293,135.5C 295.514,131.475 297.181,127.141 298,122.5C 298.254,112.316 298.754,102.15 299.5,92C 299.441,90.5643 299.108,89.231 298.5,88C 299.279,80.6959 300.279,73.1959 301.5,65.5C 300.793,49.532 303.627,34.1986 310,19.5C 311.467,16.7336 313.3,14.2336 315.5,12C 318.833,10 322.167,8 325.5,6C 332.162,4.41172 337.995,5.91172 343,10.5C 345.214,17.2584 348.214,23.5917 352,29.5C 353.243,59.5941 347.243,88.5941 334,116.5C 333.74,123.357 333.24,130.191 332.5,137C 333.774,143.269 333.441,149.603 331.5,156C 331.782,175.289 332.115,194.622 332.5,214C 332.581,218.455 331.915,222.788 330.5,227C 330.429,239.406 330.929,251.906 332,264.5C 355.655,242.164 379.822,220.664 404.5,200C 431.576,179.793 460.242,162.127 490.5,147C 536.159,126.978 583.659,118.145 633,120.5C 652.426,123.379 668.76,132.046 682,146.5C 694.539,164.382 702.705,183.882 706.5,205C 709.619,219.16 711.953,233.327 713.5,247.5C 714.629,255.937 714.629,264.103 713.5,272C 715.64,273.767 715.973,275.767 714.5,278C 715.105,297.431 717.605,316.598 722,335.5C 725.189,339.014 729.189,341.014 734,341.5C 739.278,340.815 744.445,339.648 749.5,338C 753.25,335.793 757.25,334.127 761.5,333C 792.184,313.998 821.517,292.998 849.5,270C 909.16,219.015 966.993,165.848 1023,110.5C 1025.5,106.958 1027.33,103.124 1028.5,99C 1039.44,90.9155 1044.61,93.7488 1044,107.5C 1040.83,113.181 1037.16,118.514 1033,123.5C 979.153,182.347 922.32,238.18 862.5,291C 837.927,312.283 811.927,331.616 784.5,349C 769.329,358.612 752.829,364.446 735,366.5C 722.059,365.98 712.725,359.98 707,348.5C 700.011,335.532 695.844,321.699 694.5,307C 694.833,306 695.167,305 695.5,304C 694.058,293.089 693.058,282.089 692.5,271C 692.958,241.799 689.458,212.966 682,184.5C 674.312,162.818 659.146,149.651 636.5,145C 577.077,142.273 522.077,156.606 471.5,188C 428.876,214.602 389.709,245.769 354,281.5C 354.397,291.193 354.23,300.693 353.5,310C 354.652,325.675 355.986,341.342 357.5,357C 358.925,390.107 369.592,419.941 389.5,446.5C 401.922,460.486 417.589,467.652 436.5,468C 465.788,470.953 493.455,465.619 519.5,452C 544.506,438.026 567.006,420.526 587,399.5C 598,386.167 609,372.833 620,359.5C 624.244,354.904 629.244,351.57 635,349.5C 637.413,350.024 639.58,351.024 641.5,352.5C 643.368,357.201 645.868,361.534 649,365.5C 648.599,398.594 645.766,431.761 640.5,465C 640.957,465.414 641.291,465.914 641.5,466.5C 640.094,476.446 639.094,486.279 638.5,496C 638.957,496.414 639.291,496.914 639.5,497.5C 638.203,502.012 637.869,506.512 638.5,511C 637.993,514.213 637.326,517.38 636.5,520.5C 637.19,523.068 637.523,525.568 637.5,528C 636.275,544.774 635.275,561.607 634.5,578.5C 634.515,590.872 634.515,603.539 634.5,616.5C 636.067,631.164 637.401,645.664 638.5,660C 638.339,661.956 638.006,663.956 637.5,666C 638.765,671.806 639.931,677.639 641,683.5C 667.526,654.971 694.859,626.971 723,599.5C 742.999,576.17 762.999,552.837 783,529.5C 821.951,478.215 861.284,427.215 901,376.5C 938.631,329.036 980.798,286.036 1027.5,247.5C 1070.27,215.97 1118.27,201.47 1171.5,204C 1186.48,204.998 1200.15,209.664 1212.5,218C 1223.36,229.548 1231.86,242.715 1238,257.5C 1250.34,291.324 1256.5,326.158 1256.5,362C 1257.1,365.718 1257.76,369.384 1258.5,373C 1258.03,380.534 1257.7,388.2 1257.5,396C 1258.17,398.333 1258.83,400.667 1259.5,403C 1259.04,419.138 1259.04,435.638 1259.5,452.5C 1318.1,433.184 1378.1,419.851 1439.5,412.5C 1444.56,413.391 1446.72,416.391 1446,421.5C 1445.17,422.333 1444.33,423.167 1443.5,424C 1380.79,435.845 1319.45,452.678 1259.5,474.5C 1257.4,526.847 1248.24,578.18 1232,628.5C 1206.43,716.853 1160.59,792.686 1094.5,856C 1050.79,897.121 999.127,913.121 939.5,904C 907.237,895.419 880.404,878.252 859,852.5C 833.982,817.038 828.649,778.705 843,737.5C 851.174,716.143 862.174,696.476 876,678.5C 913.712,634.122 957.545,596.956 1007.5,567C 1079.16,524.758 1154.33,489.591 1233,461.5C 1234.23,418.201 1233.56,375.201 1231,332.5C 1229.14,302.717 1222.14,274.05 1210,246.5C 1201.74,235.283 1190.58,229.116 1176.5,228C 1121.31,224.125 1071.98,239.125 1028.5,273C 1002.1,295.067 977.264,318.9 954,344.5C 925.715,376.427 898.381,409.093 872,442.5C 832.789,496.912 792.122,550.246 750,602.5C 715.373,641.128 680.04,679.128 644,716.5C 645.753,733.437 648.253,750.27 651.5,767C 650.476,770.332 650.976,773.832 653,777.5C 661.695,828.348 670.028,879.681 678,931.5C 683.467,970.966 680.134,1009.63 668,1047.5C 655.522,1083.12 630.689,1103.12 593.5,1107.5 Z M 298.5,343.5 C 298.665,361.885 299.332,380.719 300.5,400C 299.554,407.795 299.221,415.462 299.5,423C 304.025,497.641 303.192,572.141 297,646.5C 292.946,699.374 281.946,750.707 264,800.5C 255.769,821.994 245.102,841.994 232,860.5C 210.474,887.395 184.974,891.895 155.5,874C 136.672,857.536 125.172,836.702 121,811.5C 118.162,794.381 116.662,777.547 116.5,761C 119.387,704.567 131.22,650.067 152,597.5C 188.3,505.185 237.134,420.518 298.5,343.5 Z M 1230.5,484.5 C 1231.8,486.223 1232.47,488.39 1232.5,491C 1225.39,563.278 1207.56,632.778 1179,699.5C 1154.33,751.39 1121.5,797.223 1080.5,837C 1031.25,882.641 975.253,894.308 912.5,872C 868.318,843.772 852.151,803.939 864,752.5C 874.33,723.494 889.997,697.827 911,675.5C 938.537,646.944 968.704,621.777 1001.5,600C 1073.7,553.568 1150.03,515.068 1230.5,484.5 Z M 616.5,746.5 C 618.758,746.775 619.092,747.775 617.5,749.5C 627.446,806.833 637.113,863.833 646.5,920.5C 646.291,921.086 645.957,921.586 645.5,922C 646.167,924 646.833,926 647.5,928C 647.043,928.414 646.709,928.914 646.5,929.5C 647.392,935.711 648.392,941.877 649.5,948C 649.914,962.949 649.914,977.949 649.5,993C 647.678,1011.24 643.845,1028.74 638,1045.5C 632.022,1055.62 624.522,1064.45 615.5,1072C 596.223,1081.79 575.889,1084.79 554.5,1081C 530.511,1076.28 507.178,1069.61 484.5,1061C 450.708,1047.72 439.541,1023.55 451,988.5C 458.513,966.808 468.18,946.142 480,926.5C 519.924,862.341 565.424,802.341 616.5,746.5 Z"/></g>
</svg>
